{"title":"The.Revenant.2015.WEBRip.480p.x264.AAC-VYTO [P2PDL]","uid":13978356,"size":610295745,"categoryP":"video","categoryS":"movies","magnet":"?xt=urn:btih:136e12b5f4af3c952b3854a032e3e42ccb8ee268&amp;dn=The.Revenant.2015.WEBRip.480p.x264.AAC-VYTO+%5BP2PDL%5D&amp;tr=udp%3A%2F%2Ftracker.leechers-paradise.org%3A6969&amp;tr=udp%3A%2F%2Fzer0day.ch%3A1337&amp;tr=udp%3A%2F%2Fopen.demonii.com%3A1337&amp;tr=udp%3A%2F%2Ftracker.coppersurfer.tk%3A6969&amp;tr=udp%3A%2F%2Fexodus.desync.com%3A6969","seeders":2,"leechers":3,"uploader":"VYTOP2PDL","files":7,"time":1458666639,"description":"____    ____ ____    ____ .___________.  ______   \r\n     /   /      /   / |           | /  __    \r\n    /   /      /   /  `---|  |----`|  |  |  | \r\n        /     _    _/       |  |     |  |  |  | \r\n       /        |  |         |  |     |  `--'  | \r\n    __/         |__|         |__|      ______/  \r\n                                                  \r\nPresenting Small Encodes with quality for years!\r\n                                                                                                   \r\n                                                                                                   \r\n\r\n\r\nThe.Revenant.2015.WEBRip.480p.x264.AAC-VYTO\r\n\r\n\r\nGenre: Adventure, Drama, Thriller \nhttp://www.imdb.com/title/tt1663202/\r\n\r\n\r\nFormat                                   : MPEG-4\r\nFile size                                : 577 MiB\r\nDuration                                 : 2h 36mn\r\nOverall bit rate                         : 514 Kbps\r\n\r\nVideo\r\nFormat                                   : AVC\r\nBit rate                                 : 479 Kbps\r\nWidth                                    : 720 pixels\r\nHeight                                   : 304 pixels\r\nDisplay aspect ratio                     : 2.35:1\r\nFrame rate mode                          : Constant\r\nFrame rate                               : 23.976 (24000/1001) fps\r\nBit depth                                : 8 bits\r\nStream size                              : 537 MiB (93%)\r\nWriting library                          : x264 \r\n\r\nAudio\r\nFormat                                   : AAC\r\nBit rate mode                            : Variable\r\nBit rate                                 : 32.0 Kbps\r\nChannel(s)                               : 2 channels\r\nChannel positions                        : Front: L R\r\nSampling rate                            : 48.0 KHz \r\nStream size                              : 35.8 MiB (6%)\r\nLanguage                                 : English\r\n\r\nSubtitle                                 : Yes (English)\r\n\r\nScreen Shot: (Click to view)\r\n \nhttp://ititli.com/XGr \nhttp://ititli.com/XG1 \nhttp://ititli.com/XGT \nhttp://ititli.com/XGW \nhttp://ititli.com/XGg \nhttp://ititli.com/XGn \nhttp://ititli.com/XGw \nhttp://ititli.com/XG2 \nhttp://ititli.com/XG6 \nhttp://ititli.com/XG8 \nhttp://ititli.com/XGe \nhttp://ititli.com/XGj\r\n\r\n----------------------------------------------------------------------------------------------------\r\n\r\n\r\nEncoder Notes: Looking For Early Access To Anything You Can Provide WEBDL, DVDScr, DVDR, BluRay,\r\nDirect Audio, Music Releases and Seedboxes. If You Got anything to offer please contact us.\r\n\r\nSupport us by donating BC - 1FgwdzPsd1y25Gea8wP1qni35uGCtmkRCD\r\n\r\nFind us and join us!","torrent":{"xt":"urn:btih:136e12b5f4af3c952b3854a032e3e42ccb8ee268","amp;dn":"The.Revenant.2015.WEBRip.480p.x264.AAC-VYTO+%5BP2PDL%5D","amp;tr":["udp%3A%2F%2Ftracker.leechers-paradise.org%3A6969","udp%3A%2F%2Fzer0day.ch%3A1337","udp%3A%2F%2Fopen.demonii.com%3A1337","udp%3A%2F%2Ftracker.coppersurfer.tk%3A6969","udp%3A%2F%2Fexodus.desync.com%3A6969"],"infoHash":"136e12b5f4af3c952b3854a032e3e42ccb8ee268","infoHashBuffer":{"type":"Buffer","data":[19,110,18,181,244,175,60,149,43,56,84,160,50,227,228,44,203,142,226,104]},"announce":[],"urlList":[]}}